<svg xmlns="http://www.w3.org/2000/svg" viewBox="0 0 64 64"><defs><style>.cls-1{fill:#000842;}.cls-2{fill:#f6ae2d;}.cls-3{fill:#fff;}</style></defs><title>Zeichenfläche 1</title><g id="Ebene_1" data-name="Ebene 1"><rect class="cls-1" width="64" height="64"/></g><g id="events2"><g id="Ebene_5" data-name="Ebene 5"><rect class="cls-2" x="12" y="22" width="39" height="29"/></g><path class="cls-3" d="M15.53,49.82h5.85a.85.85,0,0,0,.84-.84V43.13a.85.85,0,0,0-.84-.84H15.53a.85.85,0,0,0-.84.84V49A.85.85,0,0,0,15.53,49.82Zm9.2,0h5.85a.85.85,0,0,0,.84-.84V43.13a.85.85,0,0,0-.84-.84H24.73a.85.85,0,0,0-.84.84V49A.85.85,0,0,0,24.73,49.82Zm-9.2-9.2h5.85a.85.85,0,0,0,.84-.84V33.93a.85.85,0,0,0-.84-.84H15.53a.85.85,0,0,0-.84.84v5.85A.85.85,0,0,0,15.53,40.62Zm9.2,0h5.85a.85.85,0,0,0,.84-.84V33.93a.85.85,0,0,0-.84-.84H24.73a.85.85,0,0,0-.84.84v5.85A.85.85,0,0,0,24.73,40.62Zm-9.2-9.2h5.85a.85.85,0,0,0,.84-.84V24.73a.85.85,0,0,0-.84-.84H15.53a.85.85,0,0,0-.84.84v5.85A.85.85,0,0,0,15.53,31.42Zm18.4,18.4h5.85a.85.85,0,0,0,.84-.84V43.13a.85.85,0,0,0-.84-.84H33.93a.85.85,0,0,0-.84.84V49A.85.85,0,0,0,33.93,49.82Zm-9.2-18.4h5.85a.85.85,0,0,0,.84-.84V24.73a.85.85,0,0,0-.84-.84H24.73a.85.85,0,0,0-.84.84v5.85A.85.85,0,0,0,24.73,31.42Zm18.4,18.4H49a.85.85,0,0,0,.84-.84V43.13a.85.85,0,0,0-.84-.84H43.13a.85.85,0,0,0-.84.84V49A.85.85,0,0,0,43.13,49.82Zm-9.2-9.2h5.85a.85.85,0,0,0,.84-.84V33.93a.85.85,0,0,0-.84-.84H33.93a.85.85,0,0,0-.84.84v5.85A.85.85,0,0,0,33.93,40.62Zm-9.2-21.75V11.35a.85.85,0,0,0-.84-.84H22.22a.85.85,0,0,0-.84.84v7.52a.85.85,0,0,0,.84.84h1.67A.85.85,0,0,0,24.73,18.87Zm18.4,21.75H49a.85.85,0,0,0,.84-.84V33.93a.85.85,0,0,0-.84-.84H43.13a.85.85,0,0,0-.84.84v5.85A.85.85,0,0,0,43.13,40.62Zm-9.2-9.2h5.85a.85.85,0,0,0,.84-.84V24.73a.85.85,0,0,0-.84-.84H33.93a.85.85,0,0,0-.84.84v5.85A.85.85,0,0,0,33.93,31.42Zm9.2,0H49a.85.85,0,0,0,.84-.84V24.73a.85.85,0,0,0-.84-.84H43.13a.85.85,0,0,0-.84.84v5.85A.85.85,0,0,0,43.13,31.42Zm0-12.55V11.35a.85.85,0,0,0-.84-.84H40.62a.85.85,0,0,0-.84.84v7.52a.85.85,0,0,0,.84.84h1.67A.85.85,0,0,0,43.13,18.87ZM54,17.2v36a.85.85,0,0,1-.84.84H11.35c-.46,0-.84-.38-.84-1.67v-36A2.63,2.63,0,0,1,13,14.69h5V10.51A2.52,2.52,0,0,1,20.55,8h5a2.52,2.52,0,0,1,2.51,2.51v4.18h8.37V10.51A2.52,2.52,0,0,1,39,8h5a2.52,2.52,0,0,1,2.51,2.51v4.18h5A2.52,2.52,0,0,1,54,17.2Z"/></g></svg>