<?xml version="1.0" ?>
<!DOCTYPE svg  PUBLIC '-//W3C//DTD SVG 1.1//EN'  'http://www.w3.org/Graphics/SVG/1.1/DTD/svg11.dtd'>
<svg height="64px" id="ICONS" style="enable-background:new 0 0 64 64;" version="1.1" viewBox="0 0 64 64" width="64px" xml:space="preserve" xmlns="http://www.w3.org/2000/svg" xmlns:xlink="http://www.w3.org/1999/xlink">
    <g>
        <g>
            <path d="M21.701,41.179c0-0.444,0.107-0.751,0.322-0.92c0.214-0.168,0.582-0.253,1.104-0.253    c0.598,0,1.003,0.081,1.218,0.241c0.214,0.161,0.322,0.434,0.322,0.816c0,0.521,0.214,0.931,0.644,1.23    c0.429,0.299,1.011,0.448,1.747,0.448c0.858,0,1.483-0.196,1.874-0.587s0.586-1.022,0.586-1.896v-0.437    c0-1.456-0.843-2.185-2.529-2.185c-0.583,0-0.874-0.391-0.874-1.172s0.296-1.173,0.89-1.173c0.668,0,1.186-0.148,1.551-0.445    c0.365-0.298,0.548-0.896,0.548-1.795c0-1.342-0.675-2.013-2.023-2.013c-1.364,0-2.046,0.511-2.046,1.532    c0,0.763-0.476,1.144-1.426,1.144c-0.644,0-1.061-0.088-1.253-0.263c-0.191-0.176-0.287-0.515-0.287-1.018    c0-0.446,0.084-0.889,0.253-1.327c0.168-0.438,0.433-0.865,0.793-1.281c0.36-0.415,0.885-0.754,1.575-1.016    c0.69-0.262,1.495-0.392,2.414-0.392c3.249,0,4.873,1.376,4.873,4.129c0,0.916-0.158,1.714-0.475,2.394    c-0.318,0.68-0.763,1.149-1.335,1.408c1.56,0.613,2.339,1.771,2.339,3.472v0.437c0,1.747-0.51,3.035-1.529,3.862    c-1.02,0.828-2.349,1.241-3.989,1.241c-1.732,0-3.046-0.429-3.942-1.287S21.701,42.251,21.701,41.179z" style="fill:#000000;" />
            <path d="M35.402,32.58c-0.184-0.244-0.275-0.521-0.275-0.827c0-0.475,0.191-0.835,0.574-1.08l2.713-2.069    c0.184-0.153,0.391-0.23,0.621-0.23c0.337,0,0.644,0.093,0.919,0.276c0.276,0.184,0.414,0.414,0.414,0.689v14.943    c0,0.291-0.149,0.521-0.448,0.689c-0.299,0.169-0.647,0.253-1.046,0.253c-0.414,0-0.767-0.084-1.058-0.253    c-0.291-0.168-0.437-0.398-0.437-0.689V32.006l-0.736,0.735c-0.153,0.139-0.337,0.207-0.552,0.207    C35.816,32.948,35.586,32.826,35.402,32.58z" style="fill:#000000;" />
        </g>
        <g>
            <path d="M51,50c0,2.209-1.791,4-4,4H17c-2.209,0-4-1.791-4-4V14h38V50z" style="fill:none;stroke:#000000;stroke-width:2;stroke-linecap:round;stroke-linejoin:round;stroke-miterlimit:10;" />
            <line style="fill:none;stroke:#000000;stroke-width:2;stroke-linecap:round;stroke-linejoin:round;stroke-miterlimit:10;" x1="13" x2="51" y1="22" y2="22" />
            <path d="M19,14c0-2.21,1.791-4,4-4s4,1.79,4,4s-1.791,4-4,4" style="fill:none;stroke:#000000;stroke-width:2;stroke-linecap:round;stroke-linejoin:round;stroke-miterlimit:10;" />
            <path d="M37,14c0-2.21,1.791-4,4-4s4,1.79,4,4s-1.791,4-4,4" style="fill:none;stroke:#000000;stroke-width:2;stroke-linecap:round;stroke-linejoin:round;stroke-miterlimit:10;" />
        </g>
    </g>
</svg>