<?xml version="1.0" encoding="utf-8"?>
<!-- Generator: Adobe Illustrator 16.0.0, SVG Export Plug-In . SVG Version: 6.00 Build 0)  -->
<!DOCTYPE svg PUBLIC "-//W3C//DTD SVG 1.1//EN" "http://www.w3.org/Graphics/SVG/1.1/DTD/svg11.dtd">
<svg version="1.1" id="Layer_1" xmlns="http://www.w3.org/2000/svg" xmlns:xlink="http://www.w3.org/1999/xlink" x="0px" y="0px"
	 width="512px" height="512px" viewBox="0 0 512 512" enable-background="new 0 0 512 512" xml:space="preserve">
<path d="M0,508h512c-77.563-41.375-162.688-62.5-248-63.75V206.781C273.719,195.063,288.281,188,304,188c21,0,39.938,12.625,48,32
	c8.063-19.375,27-32,48-32s39.938,12.625,48,32c0-103.313-81.719-187.375-184-191.594V12c0-4.438-3.578-8-8-8s-8,3.563-8,8v16.406
	C145.703,32.625,64,116.688,64,220c8.063-19.375,27-32,48-32s39.938,12.625,48,32c8.063-19.375,27-32,48-32
	c15.719,0,30.281,7.063,40,18.781V444.25C162.672,445.5,77.578,466.625,0,508z M264,44.688c0,0,61,22.875,88,147.094
	C339.5,179.313,322.406,172,304,172c-14.781,0-28.609,4.875-40,13.219V44.688z M160,191.781C147.516,179.313,130.406,172,112,172
	c-9.422,0-18.5,1.906-26.797,5.438c18.453-74,84.016-129.156,162.797-132.75C178.5,71.375,160,191.781,160,191.781z"/>
</svg>